<?xml version="1.0" standalone="no"?><!DOCTYPE svg PUBLIC "-//W3C//DTD SVG 1.1//EN" "http://www.w3.org/Graphics/SVG/1.1/DTD/svg11.dtd"><svg t="1567406515310" class="icon" viewBox="0 0 1024 1024" version="1.1" xmlns="http://www.w3.org/2000/svg" p-id="5379" xmlns:xlink="http://www.w3.org/1999/xlink" width="48" height="48"><defs><style type="text/css"></style></defs><path d="M832 0H192L0 256h1024zM128 448c70.4 0 128-57.6 128-128H0c0 70.4 57.6 128 128 128zM384 448c70.4 0 128-57.6 128-128H256c0 70.4 57.6 128 128 128zM640 448c70.4 0 128-57.6 128-128H512c0 70.4 57.6 128 128 128zM896 448c70.4 0 128-57.6 128-128h-256c0 70.4 57.6 128 128 128zM896 960H128V512H64v448c0 38.4 32 64 64 64h768c38.4 0 64-32 64-64V512h-64v448z" fill="" p-id="5380"></path><path d="M768 768h64v64h-64zM704 832h64v64h-64zM704 704h64v64h-64zM768 640h64v64h-64zM640 768h64v64h-64zM576 832h64v64H576z" fill="" p-id="5381"></path></svg>